<?xml version="1.0" standalone="no"?>
<!DOCTYPE svg PUBLIC "-//W3C//DTD SVG 20010904//EN"
 "http://www.w3.org/TR/2001/REC-SVG-20010904/DTD/svg10.dtd">
<svg version="1.0" xmlns="http://www.w3.org/2000/svg"
 width="4501.000000pt" height="4501.000000pt" viewBox="0 0 4501.000000 4501.000000"
 preserveAspectRatio="xMidYMid meet">

<g transform="translate(0.000000,4501.000000) scale(0.100000,-0.100000)"
fill="#000000" stroke="none">
<path d="M28044 42807 c-1 -91 -6 -127 -27 -192 -84 -258 -303 -440 -570 -475
-44 -6 -2975 -10 -7512 -10 l-7440 0 -1337 -2207 -1338 -2208 0 -3907 c0
-2149 3 -3909 7 -3911 5 -2 53 -2 108 1 l100 4 0 3677 c0 3525 1 3679 18 3761
27 122 57 204 129 343 64 122 2222 3693 2347 3882 81 124 195 239 278 283 34
18 97 43 140 55 l78 22 7290 6 c5551 4 7306 8 7355 17 102 19 170 41 244 80
268 140 375 463 245 737 -25 53 -96 153 -109 154 -3 1 -6 -50 -6 -112z"/>
<path d="M15654 29203 c-1 -98 -5 -131 -27 -198 -71 -216 -231 -375 -457 -451
-53 -18 -154 -19 -2700 -24 l-2645 -5 -5 -5535 -5 -5535 -22 -58 c-44 -115
-86 -181 -173 -267 -138 -139 -284 -199 -485 -200 l-100 -1 45 -40 c25 -22 77
-55 115 -73 311 -149 674 11 779 342 53 169 50 -156 56 5502 l5 5275 21 66
c49 158 139 247 299 295 57 17 191 19 2460 24 2588 7 2457 4 2612 56 182 61
324 205 380 386 24 75 23 236 -1 308 -26 77 -70 157 -114 208 l-37 44 -1 -119z"/>
<path d="M31145 29090 c3 -14 16 -79 29 -145 14 -66 1286 -6060 2827 -13320
2703 -12730 2803 -13204 2803 -13305 0 -169 -52 -315 -157 -438 -136 -161
-315 -245 -524 -246 l-103 -1 28 -27 c42 -42 140 -97 212 -119 83 -26 225 -28
307 -4 183 53 324 192 389 385 29 84 26 335 -4 490 -41 206 -5532 26081 -5566
26230 -55 236 -115 375 -207 480 -33 38 -39 41 -34 20z"/>
<path d="M25047 28258 c-19 -35 -922 -1696 -2007 -3693 -1085 -1996 -1990
-3655 -2011 -3686 -121 -180 -358 -296 -582 -287 l-89 3 43 -38 c84 -75 251
-137 369 -137 74 0 180 27 259 66 94 46 214 163 293 284 73 113 -22 -61 2003
3665 977 1799 1802 3308 1833 3355 106 162 213 244 377 292 l80 23 2168 0
c1440 0 2166 3 2164 10 -3 6 -12 54 -22 108 l-19 97 -2412 0 -2412 0 -35 -62z"/>
<path d="M17550 27490 c6 -11 13 -20 16 -20 2 0 0 9 -6 20 -6 11 -13 20 -16
20 -2 0 0 -9 6 -20z"/>
<path d="M17580 27440 c6 -11 13 -20 16 -20 2 0 0 9 -6 20 -6 11 -13 20 -16
20 -2 0 0 -9 6 -20z"/>
<path d="M17610 27390 c6 -11 13 -20 16 -20 2 0 0 9 -6 20 -6 11 -13 20 -16
20 -2 0 0 -9 6 -20z"/>
<path d="M17640 27340 c6 -11 13 -20 16 -20 2 0 0 9 -6 20 -6 11 -13 20 -16
20 -2 0 0 -9 6 -20z"/>
<path d="M17670 27290 c6 -11 13 -20 16 -20 2 0 0 9 -6 20 -6 11 -13 20 -16
20 -2 0 0 -9 6 -20z"/>
<path d="M17700 27240 c6 -11 13 -20 16 -20 2 0 0 9 -6 20 -6 11 -13 20 -16
20 -2 0 0 -9 6 -20z"/>
<path d="M17730 27190 c6 -11 13 -20 16 -20 2 0 0 9 -6 20 -6 11 -13 20 -16
20 -2 0 0 -9 6 -20z"/>
<path d="M17760 27140 c6 -11 13 -20 16 -20 2 0 0 9 -6 20 -6 11 -13 20 -16
20 -2 0 0 -9 6 -20z"/>
<path d="M17790 27090 c6 -11 13 -20 16 -20 2 0 0 9 -6 20 -6 11 -13 20 -16
20 -2 0 0 -9 6 -20z"/>
<path d="M17820 27040 c6 -11 13 -20 16 -20 2 0 0 9 -6 20 -6 11 -13 20 -16
20 -2 0 0 -9 6 -20z"/>
<path d="M17850 26990 c6 -11 13 -20 16 -20 2 0 0 9 -6 20 -6 11 -13 20 -16
20 -2 0 0 -9 6 -20z"/>
<path d="M17880 26940 c6 -11 13 -20 16 -20 2 0 0 9 -6 20 -6 11 -13 20 -16
20 -2 0 0 -9 6 -20z"/>
<path d="M17910 26890 c6 -11 13 -20 16 -20 2 0 0 9 -6 20 -6 11 -13 20 -16
20 -2 0 0 -9 6 -20z"/>
<path d="M17940 26840 c6 -11 13 -20 16 -20 2 0 0 9 -6 20 -6 11 -13 20 -16
20 -2 0 0 -9 6 -20z"/>
<path d="M17970 26790 c6 -11 13 -20 16 -20 2 0 0 9 -6 20 -6 11 -13 20 -16
20 -2 0 0 -9 6 -20z"/>
<path d="M18000 26740 c6 -11 13 -20 16 -20 2 0 0 9 -6 20 -6 11 -13 20 -16
20 -2 0 0 -9 6 -20z"/>
<path d="M18030 26690 c6 -11 13 -20 16 -20 2 0 0 9 -6 20 -6 11 -13 20 -16
20 -2 0 0 -9 6 -20z"/>
<path d="M18060 26640 c6 -11 13 -20 16 -20 2 0 0 9 -6 20 -6 11 -13 20 -16
20 -2 0 0 -9 6 -20z"/>
<path d="M18090 26590 c6 -11 13 -20 16 -20 2 0 0 9 -6 20 -6 11 -13 20 -16
20 -2 0 0 -9 6 -20z"/>
<path d="M18120 26540 c6 -11 13 -20 16 -20 2 0 0 9 -6 20 -6 11 -13 20 -16
20 -2 0 0 -9 6 -20z"/>
<path d="M18142 26505 c16 -33 1793 -2992 1801 -3000 16 -16 49 -72 -893 1500
-756 1262 -944 1572 -908 1500z"/>
<path d="M19960 23470 c6 -11 13 -20 16 -20 2 0 0 9 -6 20 -6 11 -13 20 -16
20 -2 0 0 -9 6 -20z"/>
<path d="M19990 23420 c6 -11 13 -20 16 -20 2 0 0 9 -6 20 -6 11 -13 20 -16
20 -2 0 0 -9 6 -20z"/>
<path d="M20020 23370 c6 -11 13 -20 16 -20 2 0 0 9 -6 20 -6 11 -13 20 -16
20 -2 0 0 -9 6 -20z"/>
<path d="M20050 23320 c6 -11 13 -20 16 -20 2 0 0 9 -6 20 -6 11 -13 20 -16
20 -2 0 0 -9 6 -20z"/>
<path d="M20080 23270 c6 -11 13 -20 16 -20 2 0 0 9 -6 20 -6 11 -13 20 -16
20 -2 0 0 -9 6 -20z"/>
<path d="M20110 23220 c6 -11 13 -20 16 -20 2 0 0 9 -6 20 -6 11 -13 20 -16
20 -2 0 0 -9 6 -20z"/>
<path d="M20140 23170 c6 -11 13 -20 16 -20 2 0 0 9 -6 20 -6 11 -13 20 -16
20 -2 0 0 -9 6 -20z"/>
<path d="M20170 23120 c6 -11 13 -20 16 -20 2 0 0 9 -6 20 -6 11 -13 20 -16
20 -2 0 0 -9 6 -20z"/>
<path d="M20200 23070 c6 -11 13 -20 16 -20 2 0 0 9 -6 20 -6 11 -13 20 -16
20 -2 0 0 -9 6 -20z"/>
<path d="M20230 23020 c6 -11 13 -20 16 -20 2 0 0 9 -6 20 -6 11 -13 20 -16
20 -2 0 0 -9 6 -20z"/>
<path d="M20260 22970 c6 -11 13 -20 16 -20 2 0 0 9 -6 20 -6 11 -13 20 -16
20 -2 0 0 -9 6 -20z"/>
<path d="M20290 22920 c6 -11 13 -20 16 -20 2 0 0 9 -6 20 -6 11 -13 20 -16
20 -2 0 0 -9 6 -20z"/>
<path d="M20327 22860 c98 -164 123 -203 123 -189 0 8 -29 59 -65 114 -67 101
-95 138 -58 75z"/>
<path d="M19984 19134 c0 -57 -8 -126 -17 -162 -9 -34 -294 -737 -633 -1562
-340 -825 -614 -1503 -611 -1506 3 -3 82 -2 175 1 l169 8 13 56 c19 87 57 183
477 1206 584 1420 571 1387 593 1561 21 170 -26 339 -126 453 l-39 43 -1 -98z"/>
<path d="M9820 8991 c0 -5784 -2 -6572 -15 -6629 -9 -36 -33 -99 -55 -141 -72
-137 -164 -230 -300 -300 -105 -55 -185 -74 -307 -75 l-102 -1 31 -32 c38 -40
143 -96 222 -118 78 -23 214 -23 292 0 199 57 350 219 405 432 12 49 23 142
30 253 7 118 9 2233 7 6445 -4 5881 -5 6275 -21 6353 -31 150 -74 246 -152
338 l-34 39 -1 -6564z"/>
<path d="M25479 14543 l-7326 -3 -107 -263 c-1067 -2605 -5019 -12207 -5053
-12277 -82 -168 -240 -300 -428 -356 -41 -12 -95 -18 -173 -18 l-114 -1 47
-42 c84 -77 234 -133 355 -133 74 0 180 27 260 66 139 69 250 206 357 439 22
50 1117 2707 2431 5905 2722 6621 2461 5989 2514 6094 104 208 201 296 381
347 l82 24 7083 0 c3895 0 7082 2 7082 5 0 36 -45 219 -54 218 -6 -2 -3308 -4
-7337 -5z"/>
</g>
</svg>
